<?xml version="1.0" encoding="utf-8"?>
<!-- Generator: Adobe Illustrator 25.2.1, SVG Export Plug-In . SVG Version: 6.00 Build 0)  -->
<svg version="1.1" id="Layer_1" xmlns="http://www.w3.org/2000/svg" xmlns:xlink="http://www.w3.org/1999/xlink" x="0px" y="0px"
	 viewBox="0 0 314.66 314.66" style="enable-background:new 0 0 314.66 314.66;" xml:space="preserve">
<style type="text/css">
	.st0{fill:#F2F2F2;}
	.st1{fill:#FFFFFF;}
</style>
<path class="st0" d="M297.08,316.33H19.58c-10.63,0-19.25-8.62-19.25-19.25V19.58c0-10.63,8.62-19.25,19.25-19.25h277.5
	c10.63,0,19.25,8.62,19.25,19.25v277.5C316.33,307.71,307.71,316.33,297.08,316.33z"/>
<g id="Group_13" transform="translate(639.104 30.046)">
	<g id="Group_11" transform="translate(-639.104 -30.046)">
		<g id="Group_5" transform="translate(0.393 0.157)">
			<path id="Path_6" d="M162.51,102.55c-8.26,17.48-22.62,22.67-39.21,23.55c-8.32,0.52-16.67,0.56-25,0.11
				c-29.27-1.86-42.62-15.05-45.51-44.62c-0.46-4.73-0.28-9.52-0.29-14.28c-0.03-13.07,0-26.14,0-39.86h206.13
				c-0.89,23.45,3.44,47.22-3.35,70.46c-3.54,13.19-15.12,22.63-28.75,23.44c-12.39,1.15-24.87,1.16-37.26,0.03
				C177.71,120.09,167.62,112.98,162.51,102.55z M82.27,58.83c0,7.18-0.04,13.64,0,20.14c-0.81,6.99,4.21,13.32,11.2,14.12
				c0.55,0.06,1.09,0.09,1.64,0.08c12.16,0.54,24.33,0.41,36.47-0.39c7.25-0.29,13.07-6.1,13.38-13.35
				c0.4-6.85,0.45-13.72,0.15-20.58L82.27,58.83z M229.58,58.98h-54.62c0.1,10.44-2.95,20.99,6.99,28.29
				c7.5,5.5,34.01,5.57,41.4,0.1c10.18-7.55,4.8-18.35,6.22-28.4V58.98z"/>
		</g>
		<g id="Group_6" transform="translate(0 29.955)">
			<path id="Path_7" d="M174.24,197.23c-0.34,5.2-0.61,9.3-0.91,13.97h-28.27v-42.68c27.55,0,54.79-2.14,81.51,0.63
				c24.94,2.59,37.55,24.36,34.66,51.86c-2.73,26.17-18.44,41.01-43.93,41.09c-39.37,0.13-78.75-0.69-118.09,0.26
				c-34.6,0.84-52.41-23.36-47.93-56.69c2.98-22.16,16.8-35.45,39.78-38.14c10.24-0.65,20.51-0.71,30.75-0.19v29.89
				c-7.63,0-15.26-0.15-22.88,0.03c-12.44,0.31-18.96,6.03-19.14,16.48c-0.18,10.45,6.1,17.18,18.43,17.29
				c38.76,0.34,77.53,0.33,116.3-0.05c12.39-0.13,17.77-6.53,17.37-17.9c-0.36-10.45-6.18-15.62-18.47-15.82
				C200.65,197.07,187.88,197.23,174.24,197.23z"/>
		</g>
		<g id="Group_7" transform="translate(0.487 20.602)">
			<path id="Path_8" d="M52.89,154.26v-31.1h204.9v31.1H52.89z"/>
		</g>
		<g id="Group_8" transform="translate(23.617 6.377)">
			<path id="Path_9" class="st1" d="M175.32,56.56c-9.36,0.08-14.41,4.65-14.11,12.75c0.27,7.04,6.2,12.52,13.24,12.25
				c0.42-0.02,0.83-0.05,1.25-0.11c7.74-0.88,11.28-6.25,10.12-15.25C176.12,67.95,174.69,66.64,175.32,56.56z"/>
		</g>
		<g id="Group_9" transform="translate(7.251 6.39)">
			<path id="Path_10" d="M98.35,56.6c0.27,10.44,1.18,11.26,10.92,9.88c0.9,9.09-2.78,14.28-10.63,14.95
				c-6.85,0.86-13.1-4-13.96-10.85c-0.04-0.3-0.06-0.6-0.08-0.9C84.09,61.4,88.98,56.74,98.35,56.6z"/>
		</g>
		<g id="Group_10" transform="translate(23.617 6.377)">
			<path id="Path_11" d="M175.32,56.56c-0.62,10.08,0.8,11.39,10.49,9.66c1.14,9.03-2.38,14.37-10.12,15.25
				c-6.98,0.96-13.41-3.91-14.37-10.89c-0.06-0.41-0.09-0.83-0.11-1.25C160.91,61.21,165.96,56.64,175.32,56.56z"/>
		</g>
	</g>
</g>
</svg>
